<svg width="125" height="55" viewBox="0 0 125 55" fill="none" xmlns="http://www.w3.org/2000/svg">
<path fill-rule="evenodd" clip-rule="evenodd" d="M0 37.6963H1.45482C1.45482 35.6047 1.49311 34.3722 1.56968 33.9987C1.68453 33.1397 2.06738 32.43 2.71822 31.9071C3.36907 31.3842 4.2879 31.1228 5.43645 31.1228C6.27872 31.1228 7.23584 31.3095 8.30781 31.7204V34.8204C7.73354 34.671 7.23584 34.559 6.85299 34.559C6.35529 34.559 6.01072 34.671 5.8193 34.8578C5.66616 35.0072 5.58959 35.3059 5.58959 35.7541V37.6963H8.19296V41.0951H5.58959V53.6446H1.45482V41.0951H0V37.6963ZM10.3375 37.6962H13.898V39.7131C14.2809 38.9287 14.7786 38.3312 15.3911 37.9203C16.0037 37.5095 16.6928 37.3227 17.4202 37.3227C17.9562 37.3227 18.4922 37.4721 19.0665 37.7336L17.8031 41.1697C17.3437 40.9456 16.9225 40.8336 16.6163 40.8336C16.0037 40.8336 15.4677 41.2071 15.0466 41.9914C14.6255 42.7384 14.3957 44.2324 14.3957 46.4733V47.2577V53.6818H10.3375V37.6962ZM34.4179 39.7131C36.0258 41.3191 36.8298 43.448 36.8298 46.0625L36.8681 46.8095H23.6598C23.8512 47.93 24.3489 48.8264 25.1912 49.4987C26.0335 50.171 27.0672 50.5071 28.3689 50.5071C29.9002 50.5071 31.2019 49.9842 32.3122 48.9384L35.7578 50.5071C34.8773 51.7023 33.8436 52.5987 32.6568 53.1589C31.4699 53.7192 30.0151 54.018 28.3689 54.018C25.8038 54.018 23.6981 53.2336 22.0901 51.6649C20.4822 50.0963 19.6782 48.1167 19.6782 45.7637C19.6782 43.336 20.4822 41.3191 22.0901 39.7131C23.6981 38.1071 25.7272 37.3227 28.1391 37.3227C30.7042 37.3227 32.8099 38.1071 34.4179 39.7131ZM23.7924 43.6348C24.2469 42.6838 24.7392 42.0235 25.3061 41.6179C26.1866 41.0203 27.182 40.6842 28.3306 40.6842C29.4025 40.6842 30.3214 40.9456 31.1254 41.5059C31.9293 42.0661 32.4653 42.7758 32.7333 43.6348H23.7924ZM56.5464 46.0625C56.5464 43.448 55.7424 41.3191 54.1345 39.7131C52.5265 38.1071 50.4208 37.3227 47.8557 37.3227C45.4438 37.3227 43.4147 38.1071 41.8067 39.7131C40.1988 41.3191 39.3948 43.336 39.3948 45.7637C39.3948 48.1167 40.1988 50.0963 41.8067 51.6649C43.4147 53.2336 45.5204 54.018 48.0855 54.018C49.7317 54.018 51.1482 53.7192 52.3734 53.1589C53.5602 52.5987 54.5939 51.7023 55.4744 50.5071L52.0288 48.9384C50.9185 49.9842 49.6168 50.5071 48.0855 50.5071C46.8221 50.5071 45.7501 50.171 44.9078 49.4987C44.0656 48.8264 43.5678 47.93 43.3764 46.8095H56.5847L56.5464 46.0625ZM45.0227 41.6179C44.4558 42.0235 43.9635 42.6838 43.509 43.6348H52.4499C52.1819 42.7758 51.6459 42.0661 50.842 41.5059C50.038 40.9456 49.1191 40.6842 48.0472 40.6842C46.8986 40.6842 45.9032 41.0203 45.0227 41.6179ZM69.5246 37.8444C70.4052 38.1805 71.2091 38.7407 71.9365 39.4504V31.5323H76.033V53.6432H71.9365V51.9625C71.1326 52.7095 70.3286 53.2323 69.5246 53.5685C68.7206 53.9046 67.8401 54.054 66.8829 54.054C64.739 54.054 62.9013 53.2697 61.3699 51.6637C59.8003 50.095 59.0346 48.0781 59.0346 45.7251C59.0346 43.26 59.8003 41.2432 61.2934 39.6745C62.8248 38.1058 64.6241 37.3215 66.7681 37.3215C67.7252 37.3215 68.6441 37.4709 69.5246 37.8444ZM72.0897 45.613C72.0897 44.2311 71.6686 43.1106 70.8263 42.2516C69.984 41.3926 68.8738 40.9444 67.5721 40.9444C66.3087 40.9444 65.2367 41.3926 64.3944 42.2516C63.5522 43.148 63.131 44.2685 63.131 45.613C63.131 46.995 63.5905 48.1155 64.4327 49.0119C65.3133 49.9082 66.347 50.3564 67.6104 50.3564C68.9121 50.3564 69.984 49.9082 70.8263 49.0492C71.6686 48.1528 72.0897 47.0323 72.0897 45.613ZM82.197 39.4518C80.3211 41.0952 79.4022 43.1867 79.4022 45.6518C79.4022 47.9675 80.2445 49.947 81.8907 51.553C83.537 53.1591 85.5278 53.9808 87.9015 53.9808C89.4711 53.9808 90.926 53.6073 92.2659 52.8603C93.6059 52.1133 94.6396 51.1048 95.4053 49.7976C96.171 48.4904 96.5538 47.0711 96.5538 45.5771C96.5538 44.0831 96.171 42.7012 95.4053 41.394C94.6396 40.1241 93.6059 39.0783 92.2276 38.3313C90.8877 37.5843 89.4328 37.2108 87.9015 37.2108C85.7192 37.2855 83.8433 38.0325 82.197 39.4518ZM91.1174 42.3277C91.9596 43.1867 92.3808 44.3072 92.3808 45.6518C92.3808 47.0337 91.9596 48.1542 91.1174 49.0133C90.2751 49.8723 89.2031 50.3205 87.9015 50.3205C86.6381 50.3205 85.5661 49.9097 84.7238 49.0133C83.8815 48.1542 83.4604 47.0337 83.4604 45.6518C83.4604 44.3072 83.8815 43.1867 84.7238 42.3277C85.5661 41.4687 86.6381 41.0205 87.9015 41.0205C89.2414 41.0578 90.3134 41.4687 91.1174 42.3277ZM103.981 37.6962H99.8849H99.8083V53.6071H103.905V46.5481C103.905 45.0167 104.058 43.8962 104.326 43.1866C104.594 42.477 105.015 41.9541 105.589 41.5432C106.164 41.1324 106.776 40.9456 107.465 40.9456C108.116 40.9456 108.652 41.1324 109.073 41.4312C109.533 41.73 109.839 42.2155 110.069 42.8504C110.298 43.4854 110.413 44.5312 110.413 45.9505V53.6445H114.51V46.4734C114.51 44.942 114.663 43.8215 114.931 43.1492C115.199 42.477 115.62 41.9167 116.194 41.5432C116.768 41.1324 117.381 40.9456 118.108 40.9456C119.027 40.9456 119.755 41.2818 120.214 41.9167C120.674 42.5517 120.903 43.7842 120.903 45.577V53.6445H125V44.3071C125 42.4023 124.808 41.0203 124.425 40.1613C124.043 39.3022 123.392 38.6299 122.511 38.1071C121.631 37.5842 120.635 37.3227 119.448 37.3227C118.338 37.3227 117.304 37.5842 116.347 38.0697C115.39 38.5553 114.586 39.3022 113.935 40.236C113.438 39.2649 112.787 38.5553 111.945 38.0697C111.102 37.5842 110.183 37.3227 109.15 37.3227C108.116 37.3227 107.159 37.5095 106.317 37.883C105.474 38.2565 104.67 38.8167 103.981 39.5637V37.6962Z" fill="#264779"/>
<path fill-rule="evenodd" clip-rule="evenodd" d="M59.0256 26.0512L59.027 26.0498L59.0275 26.0505L59.0256 26.0512ZM59.0275 26.0505L75.7592 19.4166L61.1269 29.1999L61.0887 29.2374C61.0313 29.1436 60.9836 29.0593 60.9358 28.975L60.9358 28.9749C60.8881 28.8906 60.8403 28.8063 60.783 28.7126L60.6684 28.4877C60.1591 27.6383 59.616 26.8222 59.0275 26.0505ZM71.7095 13.3817L59.027 26.0498C58.7327 25.6639 58.4271 25.2891 58.1087 24.9267L57.9559 24.7768C57.0008 23.6898 55.9692 22.7152 54.8613 21.8531L54.7085 21.7406C53.6006 20.916 52.4162 20.1663 51.1937 19.5665L51.0408 19.4916C49.8565 18.9293 48.5575 18.442 47.2586 18.1422L47.1058 18.1047C45.845 17.8048 44.5079 17.6174 43.1707 17.6174H43.2089H43.2471L46.7237 0V17.9922C46.8001 18.0297 46.9147 18.0672 46.9912 18.0672L53.868 1.42438L50.315 19.1167L50.5442 19.2292L60.5538 4.19818L53.6006 20.8785C53.6388 20.9534 53.7152 20.9909 53.7916 21.0284L66.5519 8.24643L56.5041 23.2399L56.6951 23.4274L71.7095 13.3817ZM39.0463 18.1047C39.0654 18.1047 39.094 18.0954 39.1227 18.086C39.1513 18.0766 39.18 18.0672 39.1991 18.0672L32.3223 1.42444L35.8753 19.1168C36.8686 18.7045 37.8619 18.3671 38.8935 18.1047H39.0463ZM7.60303 26.1637L23.4579 32.7234C23.8782 31.6364 24.3366 30.6243 24.8715 29.6122L7.60303 26.1637ZM35.6067 19.2292C35.4157 19.3417 35.2629 19.4167 35.0718 19.4916L34.919 19.5666C34.1167 19.9789 33.3144 20.4287 32.5503 20.9535L25.5971 4.23573L35.6067 19.2292ZM31.4048 21.7404L32.3217 21.0657L19.5614 8.24625L29.6092 23.2772L29.6093 23.2772C30.1441 22.7899 30.679 22.3026 31.252 21.8529L31.4048 21.7404ZM29.4172 23.4648C28.997 23.8771 28.5767 24.3269 28.1565 24.7767L28.0036 24.9267L27.0867 26.0512L14.4028 13.3817L29.4172 23.4648ZM10.3926 19.4541L26.9352 26.3136L25.4834 28.4877L25.3688 28.7126C25.3115 28.8063 25.2637 28.8907 25.2159 28.975C25.1682 29.0593 25.1204 29.1437 25.0631 29.2374L10.3926 19.4541ZM39.4272 0.0384295V18.0306C40.5733 17.8057 41.7195 17.6558 42.9038 17.6558L39.4272 0.0384295ZM61.3183 29.6122L78.5485 26.1637L62.6936 32.6859C62.7157 32.7075 62.725 32.7167 62.7289 32.7278C62.7318 32.7359 62.7318 32.745 62.7318 32.7609H62.6936C62.2734 31.6739 61.8149 30.6243 61.2801 29.6122H61.3183Z" fill="#D1262A"/>
</svg>
